<svg version="1.0" xmlns="http://www.w3.org/2000/svg" width="80.000000pt" height="40.000000pt"
  viewBox="0 0 251.000000 146.000000" preserveAspectRatio="xMidYMid meet">
  <g transform="translate(0.000000,146.000000) scale(0.050000,-0.050000)" stroke="none">
    <path
      d="M1077 2501 c-2 -220 -4 -417 -5 -436 -2 -26 16 -37 68 -41 l71 -6 -1 376 0 376 436 5 436 6 -3 -376 -3 -375 73 -6 72 -6 -6 434 -5 435 -565 8 -565 8 -3 -402z" />
    <path
      d="M2440 2477 c0 -229 0 -424 0 -432 -1 -8 32 -18 72 -21 l72 -7 -7 377 -7 376 400 0 400 0 3 -370 3 -370 73 -6 73 -7 -3 377 -3 376 200 -3 c449 -7 713 -326 544 -657 -22 -43 -40 -81 -40 -84 0 -3 35 -6 78 -6 199 0 169 497 -43 702 -160 156 -205 163 -1060 168 l-755 5 0 -418z" />
    <path
      d="M310 1777 c-5 -15 -12 -94 -15 -177 -5 -162 -61 -221 -114 -121 -28 51 -81 54 -81 4 0 -96 164 -139 241 -62 35 35 40 62 35 203 -6 152 -38 228 -66 153z" />
    <path
      d="M621 1744 c-129 -129 -60 -364 106 -364 223 0 240 370 19 412 -54 11 -74 3 -125 -48z m195 -153 c7 -105 -19 -151 -86 -151 -103 0 -140 191 -52 263 73 58 130 12 138 -112z" />
    <path
      d="M1178 1745 c-12 -30 -42 -109 -68 -175 -25 -66 -52 -136 -60 -155 -11 -27 -4 -35 27 -35 28 0 46 17 55 50 11 43 24 50 91 50 65 0 81 -8 97 -50 12 -31 35 -50 60 -50 39 0 40 2 9 75 -18 41 -51 125 -73 185 -65 174 -101 201 -138 105z m100 -210 c1 -8 -20 -15 -48 -15 -56 0 -62 27 -28 114 l23 56 26 -70 c14 -38 27 -77 27 -85z" />
    <path
      d="M1621 1744 c-130 -130 -60 -364 108 -364 220 0 235 368 17 412 -54 11 -74 3 -125 -48z m195 -141 c8 -111 -24 -167 -92 -159 -70 8 -113 94 -95 189 27 144 176 121 187 -30z" />
    <path
      d="M2373 1786 c-7 -7 -13 -101 -13 -209 l0 -197 107 0 c141 0 228 97 153 172 -13 13 -11 41 5 84 35 95 -179 223 -252 150z m155 -58 c70 -27 14 -139 -62 -124 -38 7 -57 59 -38 107 11 31 48 37 100 17z m30 -195 c39 -47 4 -93 -70 -93 -62 0 -68 5 -68 60 0 67 91 89 138 33z" />
    <path
      d="M2881 1744 c-130 -130 -60 -364 108 -364 220 0 235 368 17 412 -54 11 -74 3 -125 -48z m195 -141 c8 -103 -23 -163 -84 -163 -85 0 -134 118 -92 219 48 117 166 80 176 -56z" />
    <path
      d="M3353 1787 c-38 -38 -13 -407 27 -407 33 0 40 13 40 80 0 64 7 80 37 80 24 0 50 -29 73 -80 28 -61 47 -80 84 -80 51 0 50 5 -18 104 -37 53 -37 55 3 95 52 52 52 124 1 171 -39 35 -221 63 -247 37z m183 -71 c36 -36 29 -92 -15 -115 -76 -41 -101 -26 -101 59 0 85 59 113 116 56z" />
    <path
      d="M3833 1787 c-7 -8 -13 -102 -13 -210 l0 -197 110 0 c160 0 229 75 160 174 -19 28 -23 48 -10 56 31 19 24 122 -10 150 -33 28 -215 48 -237 27z m184 -105 c7 -50 -24 -81 -82 -82 -27 0 -35 17 -35 71 0 90 104 100 117 11z m0 -140 c50 -31 18 -92 -52 -98 -61 -6 -65 -2 -65 55 0 64 53 84 117 43z" />
    <path
      d="M4392 1737 c-148 -356 -148 -357 -94 -357 24 0 42 19 50 50 11 43 24 50 92 50 68 0 81 -7 92 -50 11 -46 88 -75 88 -34 0 42 -155 392 -176 399 -14 5 -37 -22 -52 -58z m85 -138 c17 -49 16 -63 -8 -72 -63 -24 -87 6 -64 81 24 80 42 78 72 -9z" />
    <path
      d="M1079 1086 c0 -9 -3 -227 -5 -486 l-4 -469 -89 6 c-379 28 -711 312 -831 712 -46 155 -155 95 -114 -62 98 -377 411 -680 773 -745 723 -132 1275 253 1381 963 l15 95 -68 0 -68 0 -25 -135 c-70 -375 -315 -668 -654 -785 -210 -72 -194 -109 -188 435 l5 475 -64 6 c-34 4 -63 -1 -64 -10z" />
    <path
      d="M2440 570 l0 -530 847 0 c466 0 892 8 946 19 458 87 762 454 743 897 l-6 134 -66 0 -66 0 -4 -190 c-10 -500 -355 -748 -1023 -736 l-294 6 2 466 2 466 -72 -6 -72 -6 2 -465 2 -466 -405 6 -405 5 6 465 7 465 -72 0 -72 0 0 -530z" />
  </g>
</svg>